<?xml version="1.0" encoding="UTF-8" standalone="no"?>
<!-- Created with Inkscape (http://www.inkscape.org/) -->

<svg
   width="960"
   height="294.39999"
   viewBox="0 0 960 294.39999"
   version="1.1"
   id="svg5"
   xml:space="preserve"
   inkscape:export-filename="logo-white.svg"
   inkscape:export-xdpi="96"
   inkscape:export-ydpi="96"
   xmlns:inkscape="http://www.inkscape.org/namespaces/inkscape"
   xmlns:sodipodi="http://sodipodi.sourceforge.net/DTD/sodipodi-0.dtd"
   xmlns:xlink="http://www.w3.org/1999/xlink"
   xmlns="http://www.w3.org/2000/svg"
   xmlns:svg="http://www.w3.org/2000/svg"><sodipodi:namedview
     id="namedview7"
     pagecolor="#ffffff"
     bordercolor="#000000"
     borderopacity="0.25"
     inkscape:showpageshadow="2"
     inkscape:pageopacity="0.0"
     inkscape:pagecheckerboard="0"
     inkscape:deskcolor="#d1d1d1"
     inkscape:document-units="px"
     showgrid="false"
     inkscape:zoom="0.78693087"
     inkscape:cx="479.71177"
     inkscape:cy="97.848493"
     inkscape:window-width="1280"
     inkscape:window-height="800"
     inkscape:window-x="0"
     inkscape:window-y="0"
     inkscape:window-maximized="0"
     inkscape:current-layer="layer1" /><defs
     id="defs2"><linearGradient
       inkscape:collect="always"
       id="linearGradient1539"><stop
         style="stop-color:#61c71f;stop-opacity:1;"
         offset="0"
         id="stop1535" /><stop
         style="stop-color:#5bc5da;stop-opacity:1;"
         offset="1"
         id="stop1537" /></linearGradient><linearGradient
       inkscape:collect="always"
       xlink:href="#linearGradient1539"
       id="linearGradient1541"
       x1="110.89603"
       y1="192.41251"
       x2="360.63"
       y2="192.41251"
       gradientUnits="userSpaceOnUse" /></defs><g
     inkscape:label="Camada 1"
     inkscape:groupmode="layer"
     id="layer1"
     transform="translate(245.69495,-110.9695)"><path
       style="fill:#2cb8ab;fill-opacity:1;stroke-width:0.32"
       d="m -198.01495,386.6419 c -40.3642,-6.31579 -41.07097,-77.80416 -0.84465,-85.43524 4.86603,-0.9231 55.57642,-0.68651 56.46887,0.26346 0.69578,0.74062 0.69578,0.74062 0.69578,42.26103 0,41.88359 -0.0139,42.43633 -1.0879,43.15344 -0.42628,0.28463 -16.24424,0.3276 -16.97776,0.0461 -1.47984,-0.56787 -1.45434,0.0388 -1.45434,-34.59412 0,-28.97378 -0.0552,-32.66351 -0.49814,-33.29589 -0.65838,-0.93996 -27.53493,-1.12599 -31.0332,-0.21481 -15.34555,3.99701 -22.07412,25.69493 -12.45499,40.16416 5.5464,8.34297 10.52404,10.52735 24.00599,10.53471 11.18194,0.006 10.06034,-0.9383 10.06034,8.47103 0,7.91032 -0.0133,7.99865 -1.30289,8.66554 -1.23183,0.637 -21.48016,0.62163 -25.57711,-0.0194 z m 71.36,-0.15241 c -0.87523,-0.87522 -1.00636,-52.60416 -0.14785,-58.3221 2.10721,-14.03464 9.00723,-23.17157 20.03949,-26.53612 3.15328,-0.96167 36.511906,-1.33999 37.900971,-0.42983 1.173223,0.76872 1.216499,15.88901 0.04739,16.5568 -0.543984,0.31072 -4.16209,0.45037 -14.8,0.57125 -14.08,0.16 -14.08,0.16 -15.84,1.08516 -6.202631,3.26046 -8.320001,7.26281 -8.320001,15.72685 0,7.2844 -2.15174,6.5453 19.059662,6.5468 20.922576,0.002 18.380339,-1.21456 18.380339,8.79187 0,9.96101 2.455075,8.80812 -18.769398,8.81404 -21.300983,0.006 -18.474783,-2.06048 -18.670603,13.65127 -0.15018,12.04962 -0.19742,12.87902 -0.7696,13.51085 -0.92541,1.02191 -17.09205,1.05151 -18.1104,0.0332 z m 97.673267,0.42583 c -1.363782,-0.54872 -1.353267,-0.28004 -1.353267,-34.57873 0,-28.97378 -0.0552,-32.66351 -0.498144,-33.29589 -0.496922,-0.70946 -0.523094,-0.71121 -10.64,-0.7124 -13.524026,-0.002 -12.221856,0.95048 -12.221856,-8.93596 0,-9.9688 -5.003686,-8.66285 33.191203,-8.66285 38.056119,0 33.048797,-1.28086 33.048797,8.45383 0,10.07777 1.234739,9.14617 -12.12232,9.14617 -12.97345,0 -11.23768,-5.31194 -11.23768,34.39044 0,32.74829 -0.02246,33.45323 -1.087904,34.16466 -0.391158,0.26119 -16.43431,0.29005 -17.078829,0.0307 z M 53.82505,386.6419 c -33.336173,-5.21611 -42.731994,-60.14947 -13.696422,-80.07716 8.38182,-5.75261 7.644902,-5.64788 40.536998,-5.76079 33.459044,-0.11485 29.159644,-1.34353 29.158624,8.33292 v 7.43262 l -4.03658,7.68 c -2.22009,4.224 -6.7095,12.576 -9.976412,18.56 -3.266912,5.984 -6.140608,11.27589 -6.385952,11.75976 -0.716384,1.41274 -22.151437,1.86914 -22.419226,0.47736 -0.09061,-0.47095 2.287015,-5.18427 6.657264,-13.19712 0.479956,-0.88 2.07201,-3.832 3.53793,-6.56 1.465888,-2.728 3.294432,-6.112 4.063424,-7.52 2.188352,-4.0069 2.557376,-4.96899 2.792384,-7.28 l 0.21968,-2.16 H 71.998519 c -13.710496,0 -14.294263,0.069 -18.303197,2.16437 -14.943232,7.81031 -16.312182,35.02691 -2.265949,45.05009 5.596928,3.99443 5.522183,3.98554 33.507645,3.98554 20.720322,0 23.548832,0.0583 24.176832,0.49815 1.35635,0.95002 1.06346,15.61647 -0.3288,16.46536 -1.32966,0.8107 -49.889626,0.94227 -54.96,0.1489 z m 71.4879,0.24269 c -1.07388,-0.71706 -1.0879,-1.27153 -1.0879,-43.05091 0,-41.41788 0,-41.41788 0.67248,-42.27278 0.85104,-1.08193 61.67747,-1.17178 65.88752,-0.0973 14.98365,3.82399 20.64355,11.92182 20.62294,29.50592 -0.016,13.64964 -3.35558,20.17793 -12.67126,24.77021 l -3.08835,1.52243 0.89558,1.57368 c 0.49258,0.86552 4.08599,7.17359 7.98535,14.01791 9.03782,15.86364 9.44604,14.09458 -3.27687,14.20028 -11.86544,0.0986 -10.87053,0.37823 -13.11654,-3.68682 -0.94743,-1.71473 -4.14605,-7.50969 -7.10803,-12.87769 -2.96202,-5.368 -5.66272,-10.15953 -6.00154,-10.64785 -0.61603,-0.88785 -0.61603,-0.88785 -10.0887,-0.86234 -12.33021,0.0332 -11.08493,0.94514 -11.20298,-8.20405 -0.13462,-10.43131 -1.77686,-9.40576 15.06134,-9.40576 13.63508,0 15.2256,-0.1413 18.36452,-1.63144 9.05616,-4.29929 5.80787,-18.13766 -4.91293,-20.93008 -2.90579,-0.75686 -37.27117,-0.71099 -37.90336,0.0506 -0.36368,0.43815 -0.46666,6.23438 -0.59917,33.72651 -0.15459,32.0756 -0.18061,33.22019 -0.7696,33.87093 -0.62733,0.6931 -16.68288,1.0827 -17.6625,0.42859 z m 101.83527,-0.41832 c -1.22791,-0.96587 -1.34528,-15.58879 -0.13197,-16.43863 0.62838,-0.44015 3.52528,-0.49837 24.88,-0.50004 26.37952,-0.002 28.69616,-0.12915 32.15181,-1.76393 5.96611,-2.82243 5.71613,-10.89773 -0.41834,-13.51286 -3.04035,-1.2961 -4.62237,-1.42832 -20.04467,-1.67522 -18.4393,-0.29521 -21.64515,-0.87716 -28.06675,-5.09489 -13.21811,-8.68171 -13.17747,-34.41752 0.0667,-42.27886 7.08806,-4.20725 9.6583,-4.47235 43.36042,-4.47235 32.90748,0 28.63958,-1.31286 28.63958,8.80993 0,10.04501 3.8017,8.78952 -26.6241,8.79249 -28.42636,0.003 -30.09747,0.1427 -33.23491,2.7827 -3.26553,2.74775 -2.96944,8.46458 0.57891,11.17724 3.06253,2.34127 3.70832,2.42888 19.9201,2.70255 16.73722,0.28254 19.9217,0.62966 25.23309,2.7505 10.22185,4.08158 14.12691,10.43316 14.12691,22.97736 0,16.66702 -6.60867,23.9183 -23.64608,25.94539 -6.92627,0.82408 -55.70701,0.6511 -56.79075,-0.20138 z m 126.3383,0.19917 c -33.46643,-5.20103 -43.03069,-59.44254 -14.10454,-79.99083 8.21833,-5.83805 8.97341,-5.94512 41.92723,-5.94512 32.15062,0 28.03584,-1.21608 28.03584,8.28574 v 7.28944 l -1.9649,3.81241 c -5.45171,10.57772 -18.31817,34.25196 -19.072,35.09241 -0.94288,1.05121 -21.8431,0.82785 -21.8431,-0.23344 0,-0.73693 1.66115,-3.94859 10.0169,-19.36656 6.73852,-12.43393 6.9431,-12.8818 6.9431,-15.20058 v -2.07942 h -12.09277 c -13.49136,0 -14.09837,0.0721 -18.11773,2.15327 -16.38745,8.48501 -16.08406,38.58875 0.47111,46.74508 4.71344,2.32219 4.28096,2.28985 30.70819,2.2961 20.77152,0.005 23.61213,0.0639 24.24,0.5037 1.35635,0.95002 1.06346,15.61647 -0.3288,16.46536 -1.29549,0.78986 -49.86259,0.94264 -54.81853,0.17244 z m 96.87933,-0.27123 c -0.38413,-0.40889 -1.62854,-3.4274 -2.80336,-6.8 -1.16192,-3.3356 -3.1225,-8.94472 -4.3568,-12.46472 -1.2343,-3.52 -2.79258,-7.984 -3.46285,-9.92 -0.67024,-1.936 -2.1559,-6.184 -3.30147,-9.44 -1.14554,-3.256 -3.66896,-10.456 -5.60758,-16 -1.9386,-5.544 -4.92023,-14.04 -6.62583,-18.88 -3.66134,-10.38989 -3.83053,-10.94167 -3.56598,-11.63101 0.29155,-0.7598 20.37456,-0.81178 21.13165,-0.0547 0.26086,0.26086 4.96313,13.94086 10.44953,30.4 5.48637,16.45914 10.07123,29.92486 10.18855,29.92382 0.11734,-9.6e-4 0.76361,-1.62104 1.43619,-3.6 0.67257,-1.97896 1.56285,-4.53411 1.97837,-5.67811 0.41552,-1.144 2.13321,-6.004 3.81712,-10.8 2.77657,-7.908 5.52947,-15.73391 11.00326,-31.28 3.09651,-8.79438 3.22854,-9.10084 4.00125,-9.28931 2.40781,-0.58728 19.25856,0.0192 19.35513,0.69666 0.0834,0.58498 -1.87971,6.51301 -7.13724,21.55265 -0.58448,1.672 -2.52884,7.288 -4.32074,12.48 -1.7919,5.192 -3.73533,10.808 -4.31869,12.48 -0.58336,1.672 -1.95193,5.632 -3.04131,8.8 -1.08938,3.168 -2.45894,7.128 -3.04349,8.8 -0.58454,1.672 -2.37481,6.856 -3.9784,11.52 -2.19929,6.39665 -3.11437,8.65689 -3.7247,9.2 -1.28659,1.14491 -22.99562,1.13113 -24.07261,-0.0153 z m 89.52771,0.24733 c -32.7856,-5.1128 -42.43456,-58.41534 -14.39865,-79.54065 8.0696,-6.08052 8.77113,-6.18801 41.11513,-6.29999 33.51447,-0.11602 29.29501,-1.31229 29.29501,8.30551 v 7.65928 l -1.96182,3.7419 c -2.04173,3.89433 -4.12426,7.81976 -5.88976,11.1019 -4.87773,9.06791 -8.17466,15.13255 -10.43776,19.2 l -2.67066,4.8 h -10.87562 c -12.9912,0 -12.05017,0.76894 -8.07574,-6.59897 14.9265,-27.67098 14.27523,-26.3492 14.29731,-29.0176 l 0.0141,-1.69657 -13.04,0.10036 c -14.46921,0.11135 -14.8095,0.16708 -19.11792,3.13134 -13.70176,9.42707 -13.76205,35.17709 -0.10361,44.26257 5.5576,3.69687 4.34563,3.55641 32.26153,3.73887 13.464,0.088 24.732,0.28341 25.04,0.43424 1.07994,0.52885 0.82077,15.6342 -0.28317,16.50254 -1.06534,0.83799 -49.92323,0.99322 -55.16832,0.17527 z m 71.07872,-0.35011 c -1.05779,-1.34475 -1.05401,-83.3839 0.004,-84.72881 1.07488,-1.36649 54.87395,-1.16302 59.30919,0.22431 13.39782,4.19084 23.69683,16.781 26.94947,32.94476 0.94262,4.68427 1.0359,50.34834 0.10525,51.53145 -1.05911,1.34644 -17.15479,1.36694 -18.21178,0.0232 -0.65667,-0.83483 -0.66323,-1.06519 -0.66323,-23.33185 0,-24.88588 -0.0246,-25.25026 -2.01687,-29.84749 -2.88582,-6.65927 -8.335,-12.01728 -14.28464,-14.04558 -3.44502,-1.17445 -31.04723,-1.12517 -31.82169,0.0568 -0.46714,0.71295 -0.51725,3.93355 -0.52151,33.51999 -0.004,25.73968 -0.0911,32.90214 -0.40931,33.53126 -0.65971,1.30449 -17.42137,1.41534 -18.43875,0.12194 z"
       id="path857"
       sodipodi:nodetypes="sssssssssscsssssssssssscssssssssscsssssssssssccsssssssscsccssssssscsscsssssssssssssssssssssssssscsssssssssssscssssscscssssssssssssssssssssssssssssssssssscssscssscsssssssssssssssssscsss"
       inkscape:label="aft7" /><path
       d="m 149.03368,257.83128 c -17.56003,-2.73708 -33.36441,-18.5875 -37.31443,-37.42306 -1.09763,-5.23408 -1.09763,-51.08592 0,-56.32 5.21014,-24.84456 29.38186,-42.03254 52.00976,-36.98302 11.61139,2.59113 13.53843,3.86229 45.61648,30.09088 14.168,11.58446 25.93802,21.20226 26.15555,21.3729 0.28007,0.21964 0.93424,-0.15147 2.24,-1.27072 6.20448,-5.31819 50.2761,-41.15111 52.39472,-42.60007 27.456,-18.77779 63.26599,-3.46249 69.84157,29.87003 0.88979,4.51044 0.86144,50.60165 -0.034,55.36 -5.06592,26.91852 -31.80355,44.11134 -56.43357,36.28787 -10.25913,-3.2587 -7.74966,-1.4097 -59.56275,-43.88664 -5.35904,-4.3934 -8.24137,-6.55935 -8.48,-6.3723 -0.19881,0.15585 -11.59347,9.47504 -25.32147,20.70929 -37.57898,30.7526 -43.70707,33.87772 -61.11181,31.16484 z m 12.63181,-21.91296 c 3.64317,-0.84151 7.46048,-2.58872 10.25005,-4.69151 5.49158,-4.1396 47.18995,-38.6691 47.18995,-39.07697 0,-0.51856 -47.51712,-39.30178 -49.49021,-40.39363 -14.43053,-7.98553 -30.57581,-2.77129 -36.05984,11.64579 -1.78966,4.70491 -1.80995,5.02843 -1.80995,28.84622 0,17.29228 0.0928,22.3929 0.43974,24.16 2.76525,14.08621 15.75226,22.68103 29.48026,19.5101 z m 160.1888,-0.15742 c 8.06541,-2.06264 13.97699,-7.81967 16.75056,-16.31268 1.95293,-5.98011 1.95325,-48.44145 0,-54.38661 -4.19101,-12.75907 -16.36906,-19.55236 -29.25978,-16.32204 -6.3638,1.59471 -7.52848,2.43241 -34.24,24.62715 -4.576,3.80222 -11.56,9.55636 -15.52,12.78697 -3.96,3.23061 -7.2719,5.93539 -7.35977,6.01063 -0.20589,0.17626 0.48131,0.76914 8.33773,7.19326 3.59814,2.94215 14.03004,11.47499 23.18204,18.96187 22.51364,18.41748 26.73597,20.34994 38.1088,17.44145 z"
       style="display:inline;fill:url(#linearGradient1541);fill-opacity:1;stroke-width:0.32"
       id="path968"
       inkscape:label="infinity" /></g></svg>
